<svg id="svg" version="1.1" xmlns="http://www.w3.org/2000/svg" xmlns:xlink="http://www.w3.org/1999/xlink" width="400" height="203.17796610169492" viewBox="0, 0, 400,203.17796610169492"><g id="svgg"><path id="path0" d="M47.002 0.140 C 47.198 0.191,47.518 0.191,47.713 0.140 C 47.909 0.089,47.749 0.047,47.358 0.047 C 46.966 0.047,46.806 0.089,47.002 0.140 M48.733 0.147 C 49.099 0.193,49.647 0.192,49.953 0.145 C 50.258 0.099,49.959 0.062,49.289 0.063 C 48.618 0.064,48.368 0.102,48.733 0.147 M52.287 0.140 C 52.482 0.191,52.802 0.191,52.998 0.140 C 53.194 0.089,53.034 0.047,52.642 0.047 C 52.251 0.047,52.091 0.089,52.287 0.140 M42.683 0.437 C 42.683 0.648,43.054 0.638,43.598 0.413 C 43.927 0.276,43.879 0.247,43.343 0.255 C 42.980 0.261,42.683 0.343,42.683 0.437 M44.464 0.347 C 44.717 0.396,45.082 0.394,45.277 0.343 C 45.471 0.292,45.264 0.252,44.817 0.255 C 44.370 0.257,44.211 0.298,44.464 0.347 M40.041 0.553 C 39.761 0.603,39.441 0.734,39.329 0.845 C 39.195 0.977,39.334 0.991,39.736 0.886 C 40.071 0.799,40.551 0.737,40.803 0.749 C 41.054 0.761,41.260 0.688,41.260 0.588 C 41.260 0.402,40.935 0.393,40.041 0.553 M38.313 0.755 C 38.089 0.808,37.815 0.945,37.703 1.059 C 37.566 1.198,37.665 1.214,38.008 1.109 C 38.288 1.023,38.631 0.951,38.770 0.950 C 38.910 0.949,39.024 0.872,39.024 0.779 C 39.024 0.600,38.963 0.598,38.313 0.755 M57.520 0.993 C 57.520 1.223,59.143 1.592,59.268 1.391 C 59.329 1.291,59.304 1.226,59.212 1.247 C 59.120 1.267,58.908 1.232,58.740 1.168 C 58.146 0.943,57.520 0.853,57.520 0.993 M34.959 1.423 C 34.959 1.687,35.508 1.687,35.671 1.423 C 35.740 1.311,35.608 1.220,35.378 1.220 C 35.148 1.220,34.959 1.311,34.959 1.423 M33.265 1.672 C 32.996 1.843,33.202 1.893,33.943 1.834 C 34.223 1.812,34.528 1.721,34.621 1.632 C 34.833 1.429,33.590 1.466,33.265 1.672 M59.959 1.877 C 60.239 2.001,60.788 2.238,61.179 2.406 C 61.570 2.574,61.959 2.746,62.043 2.790 C 62.127 2.834,62.194 2.796,62.192 2.705 C 62.187 2.501,60.172 1.618,59.756 1.639 C 59.588 1.647,59.680 1.754,59.959 1.877 M31.301 2.180 C 30.822 2.438,30.839 2.446,31.606 2.319 C 32.669 2.142,33.129 1.896,32.384 1.902 C 32.068 1.905,31.580 2.030,31.301 2.180 M29.167 2.741 C 28.831 2.889,28.488 2.967,28.404 2.916 C 28.321 2.864,28.252 2.925,28.252 3.050 C 28.252 3.176,28.412 3.232,28.608 3.174 C 28.803 3.116,29.215 3.008,29.522 2.935 C 29.830 2.861,30.081 2.720,30.081 2.620 C 30.081 2.388,29.917 2.410,29.167 2.741 M63.504 3.569 C 63.721 3.730,63.996 3.855,64.114 3.846 C 64.232 3.837,64.214 3.783,64.074 3.727 C 63.934 3.670,63.859 3.559,63.907 3.480 C 63.956 3.401,63.797 3.323,63.553 3.306 C 63.121 3.276,63.119 3.283,63.504 3.569 M22.815 5.126 C 22.564 5.247,22.358 5.427,22.358 5.526 C 22.358 5.696,22.696 5.551,23.374 5.091 C 23.773 4.821,23.400 4.844,22.815 5.126 M21.392 5.823 C 21.029 6.002,20.732 6.227,20.732 6.323 C 20.732 6.419,21.052 6.345,21.443 6.158 C 21.834 5.972,22.154 5.744,22.154 5.653 C 22.154 5.442,22.172 5.438,21.392 5.823 M67.480 6.087 C 67.480 6.205,67.609 6.301,67.768 6.301 C 67.926 6.301,68.086 6.370,68.123 6.455 C 68.205 6.640,69.692 7.797,70.122 8.009 C 70.342 8.118,70.335 8.084,70.094 7.886 C 67.740 5.941,67.480 5.762,67.480 6.087 M19.966 6.595 C 19.373 6.923,19.185 7.114,19.456 7.114 C 19.574 7.114,19.886 6.934,20.150 6.714 C 20.694 6.261,20.637 6.224,19.966 6.595 M17.723 7.944 C 16.569 8.793,16.647 8.873,17.886 8.111 C 18.445 7.767,18.902 7.448,18.902 7.401 C 18.902 7.186,18.506 7.369,17.723 7.944 M71.545 9.132 C 71.545 9.219,72.185 9.859,72.967 10.554 C 73.749 11.249,74.338 11.687,74.277 11.526 C 74.215 11.366,73.827 10.970,73.414 10.648 C 73.001 10.325,72.411 9.817,72.104 9.518 C 71.796 9.219,71.545 9.045,71.545 9.132 M13.149 11.501 C 12.836 11.771,12.653 11.990,12.743 11.987 C 12.997 11.980,13.929 11.219,13.818 11.108 C 13.764 11.054,13.463 11.231,13.149 11.501 M74.704 12.028 C 74.835 12.348,75.818 13.098,75.802 12.865 C 75.796 12.776,75.521 12.491,75.193 12.231 C 74.864 11.971,74.644 11.880,74.704 12.028 M12.194 12.246 C 12.193 12.386,11.906 12.663,11.557 12.862 C 11.207 13.061,10.981 13.284,11.054 13.357 C 11.127 13.431,10.843 13.862,10.423 14.316 C 10.002 14.771,10.316 14.509,11.120 13.735 C 11.924 12.961,12.535 12.252,12.478 12.160 C 12.327 11.915,12.195 11.955,12.194 12.246 M76.159 13.144 C 76.089 13.258,76.349 13.657,76.736 14.032 C 77.224 14.506,77.439 14.616,77.439 14.393 C 77.439 14.216,77.256 14.024,77.033 13.966 C 76.810 13.907,76.550 13.652,76.457 13.399 C 76.363 13.146,76.229 13.031,76.159 13.144 M78.756 16.052 C 79.304 16.609,79.792 17.024,79.840 16.976 C 79.950 16.866,78.140 15.041,77.920 15.041 C 77.832 15.041,78.208 15.496,78.756 16.052 M8.576 16.618 L 8.107 17.378 8.627 16.808 C 8.913 16.494,9.146 16.151,9.146 16.046 C 9.146 15.739,9.073 15.813,8.576 16.618 M7.620 17.680 C 7.689 17.791,7.557 18.082,7.327 18.328 C 7.098 18.574,6.911 18.916,6.911 19.088 C 6.911 19.413,7.001 19.308,7.817 18.039 C 8.149 17.524,8.150 17.480,7.837 17.480 C 7.649 17.480,7.552 17.570,7.620 17.680 M82.210 19.553 C 83.302 20.704,84.334 21.727,84.504 21.824 C 85.048 22.139,84.575 21.572,83.213 20.277 C 82.503 19.601,81.972 18.968,82.033 18.869 C 82.094 18.770,82.027 18.714,81.884 18.745 C 81.741 18.776,81.620 18.709,81.615 18.598 C 81.603 18.334,80.836 17.599,80.491 17.520 C 80.344 17.487,81.118 18.402,82.210 19.553 M6.170 20.244 C 5.930 20.736,5.802 21.138,5.885 21.138 C 6.062 21.138,6.810 19.546,6.688 19.429 C 6.643 19.386,6.409 19.752,6.170 20.244 M316.382 20.678 C 316.355 20.704,315.906 20.742,315.382 20.762 C 314.859 20.781,314.431 20.854,314.431 20.922 C 314.431 21.087,318.759 20.934,318.943 20.763 C 319.021 20.690,318.488 20.630,317.757 20.630 C 317.027 20.630,316.408 20.652,316.382 20.678 M321.545 20.782 C 321.545 20.866,322.200 20.935,323.001 20.935 C 323.803 20.935,324.407 20.884,324.345 20.822 C 324.170 20.647,321.545 20.610,321.545 20.782 M312.398 20.935 C 311.917 21.089,311.925 21.099,312.551 21.118 C 312.914 21.129,313.211 21.047,313.211 20.935 C 313.211 20.705,313.116 20.705,312.398 20.935 M313.415 20.978 C 313.415 21.203,313.976 21.178,314.118 20.947 C 314.183 20.842,314.052 20.770,313.826 20.787 C 313.600 20.804,313.415 20.890,313.415 20.978 M324.898 20.941 C 325.442 21.166,325.813 21.176,325.813 20.966 C 325.813 20.871,325.516 20.789,325.152 20.783 C 324.616 20.775,324.569 20.805,324.898 20.941 M326.829 20.986 C 326.829 21.070,327.188 21.138,327.626 21.138 C 328.064 21.138,328.567 21.194,328.744 21.262 C 328.920 21.329,329.065 21.292,329.065 21.179 C 329.065 21.065,328.562 20.941,327.947 20.903 C 327.332 20.865,326.829 20.902,326.829 20.986 M310.096 21.063 C 310.077 21.077,309.484 21.135,308.779 21.193 C 308.074 21.250,307.434 21.363,307.356 21.444 C 307.279 21.524,307.764 21.530,308.435 21.457 C 309.106 21.384,310.098 21.288,310.640 21.245 C 311.182 21.201,311.681 21.110,311.749 21.042 C 311.847 20.945,310.226 20.964,310.096 21.063 M5.285 21.733 C 5.285 21.949,5.141 22.269,4.965 22.445 C 4.789 22.620,4.741 22.764,4.858 22.764 C 4.975 22.764,5.210 22.494,5.381 22.165 C 5.745 21.460,5.761 21.341,5.488 21.341 C 5.376 21.341,5.285 21.518,5.285 21.733 M305.691 21.557 C 305.469 21.709,305.604 21.734,306.187 21.650 C 306.628 21.586,307.032 21.491,307.085 21.438 C 307.279 21.244,305.987 21.354,305.691 21.557 M332.622 21.540 C 333.143 21.770,333.740 21.795,333.740 21.586 C 333.740 21.497,333.397 21.410,332.978 21.392 C 332.381 21.367,332.304 21.399,332.622 21.540 M303.353 21.714 C 303.314 21.754,302.842 21.827,302.303 21.877 C 301.765 21.927,301.251 22.041,301.162 22.130 C 301.073 22.219,301.779 22.188,302.730 22.060 C 304.469 21.827,305.244 21.569,304.060 21.617 C 303.711 21.632,303.392 21.675,303.353 21.714 M334.553 21.738 C 334.553 21.855,334.723 21.951,334.931 21.951 C 335.139 21.951,335.756 21.997,336.303 22.053 C 337.154 22.140,337.209 22.126,336.687 21.954 C 335.664 21.618,334.553 21.506,334.553 21.738 M86.179 23.476 C 86.899 24.202,87.534 24.797,87.590 24.797 C 87.646 24.797,87.102 24.202,86.382 23.476 C 85.662 22.749,85.027 22.154,84.971 22.154 C 84.915 22.154,85.459 22.749,86.179 23.476 M298.628 22.298 C 298.377 22.346,298.171 22.476,298.171 22.587 C 298.171 22.698,298.239 22.746,298.323 22.694 C 298.407 22.643,298.979 22.537,299.593 22.460 C 300.208 22.383,300.749 22.282,300.796 22.237 C 300.903 22.133,299.241 22.180,298.628 22.298 M338.720 22.456 C 340.177 22.803,340.510 22.827,340.354 22.574 C 340.289 22.469,340.078 22.391,339.884 22.400 C 339.691 22.410,339.075 22.361,338.516 22.292 C 337.519 22.168,337.523 22.171,338.720 22.456 M291.260 23.611 C 291.260 23.704,291.504 23.780,291.802 23.780 C 292.100 23.780,292.281 23.718,292.205 23.641 C 292.000 23.436,291.260 23.413,291.260 23.611 M290.142 23.781 C 290.102 23.845,290.292 23.916,290.563 23.938 C 290.835 23.961,291.057 23.908,291.057 23.822 C 291.057 23.641,290.251 23.605,290.142 23.781 M88.033 25.348 C 88.390 25.869,89.439 26.736,89.414 26.488 C 89.404 26.396,89.020 26.001,88.560 25.610 C 88.016 25.146,87.832 25.055,88.033 25.348 M350.688 25.552 C 350.841 25.706,352.146 26.204,352.744 26.337 C 353.280 26.456,351.896 25.812,351.141 25.591 C 350.818 25.496,350.614 25.479,350.688 25.552 M281.707 26.040 C 280.849 26.405,280.836 26.421,281.504 26.301 C 281.895 26.230,282.344 26.069,282.501 25.942 C 282.658 25.815,282.825 25.742,282.873 25.779 C 282.921 25.816,283.014 25.794,283.079 25.728 C 283.310 25.498,282.610 25.657,281.707 26.040 M353.364 26.407 C 353.257 26.579,353.651 26.794,354.167 26.844 C 354.278 26.855,354.507 26.970,354.675 27.101 C 354.940 27.306,354.943 27.291,354.703 26.984 C 354.550 26.790,354.352 26.676,354.262 26.732 C 354.172 26.787,353.959 26.694,353.790 26.525 C 353.618 26.353,353.429 26.301,353.364 26.407 M279.746 26.636 C 279.628 26.754,279.336 26.865,279.095 26.883 C 278.855 26.901,278.659 26.994,278.659 27.089 C 278.659 27.275,279.198 27.144,280.183 26.719 C 280.670 26.509,280.709 26.453,280.376 26.439 C 280.147 26.430,279.863 26.519,279.746 26.636 M89.634 26.774 C 89.634 26.873,90.152 27.452,90.785 28.060 C 91.418 28.669,91.832 28.972,91.705 28.733 C 91.578 28.495,91.329 28.244,91.151 28.176 C 90.970 28.106,90.892 27.948,90.974 27.816 C 91.060 27.676,91.031 27.634,90.904 27.713 C 90.785 27.787,90.450 27.565,90.161 27.221 C 89.871 26.876,89.634 26.676,89.634 26.774 M2.682 28.074 C 2.441 29.026,2.676 28.898,3.010 27.896 C 3.132 27.533,3.155 27.236,3.063 27.236 C 2.971 27.236,2.799 27.613,2.682 28.074 M356.772 27.990 C 356.946 28.271,357.724 28.470,357.724 28.233 C 357.724 28.132,357.640 28.049,357.537 28.049 C 357.434 28.049,357.191 27.988,356.995 27.913 C 356.772 27.827,356.690 27.856,356.772 27.990 M358.745 28.804 C 358.748 28.892,359.091 29.126,359.507 29.324 C 360.117 29.614,360.185 29.621,359.858 29.360 C 359.258 28.881,358.739 28.622,358.745 28.804 M2.236 29.438 C 2.236 29.643,2.173 29.873,2.096 29.950 C 2.019 30.027,1.943 30.274,1.926 30.499 C 1.910 30.724,1.965 30.837,2.050 30.749 C 2.250 30.541,2.522 29.065,2.360 29.065 C 2.292 29.065,2.236 29.233,2.236 29.438 M92.775 29.839 C 93.217 30.308,93.603 30.691,93.632 30.691 C 93.840 30.691,93.337 30.084,92.716 29.585 L 91.972 28.987 92.775 29.839 M270.833 29.912 C 269.655 30.375,269.131 30.772,270.044 30.510 C 270.711 30.319,272.377 29.483,272.053 29.501 C 271.941 29.508,271.392 29.693,270.833 29.912 M360.707 29.896 C 360.838 30.054,361.296 30.362,361.723 30.581 C 362.150 30.800,362.729 31.127,363.008 31.307 C 363.288 31.488,363.882 31.847,364.329 32.106 L 365.142 32.576 364.333 31.850 C 363.887 31.451,363.484 31.164,363.437 31.211 C 363.389 31.258,363.251 31.219,363.128 31.123 C 362.593 30.701,360.491 29.636,360.707 29.896 M266.815 31.607 C 265.722 32.099,264.764 32.498,264.686 32.495 C 264.607 32.492,264.511 32.611,264.471 32.759 C 264.424 32.938,264.473 32.925,264.616 32.724 C 264.734 32.556,264.833 32.486,264.834 32.568 C 264.838 32.723,266.032 32.282,267.785 31.479 C 268.343 31.223,268.862 31.009,268.936 31.005 C 269.011 31.000,269.140 30.927,269.224 30.843 C 269.585 30.483,268.665 30.775,266.815 31.607 M94.642 31.601 C 95.074 31.990,95.511 32.310,95.613 32.312 C 95.846 32.318,94.272 30.914,94.032 30.903 C 93.936 30.898,94.211 31.212,94.642 31.601 M1.361 32.650 C 0.995 34.243,1.027 35.013,1.401 33.608 C 1.666 32.613,1.906 31.098,1.799 31.098 C 1.754 31.098,1.557 31.796,1.361 32.650 M263.770 32.878 C 263.575 32.921,263.415 33.041,263.415 33.145 C 263.415 33.383,263.635 33.381,264.019 33.138 C 264.384 32.907,264.253 32.770,263.770 32.878 M97.273 33.833 C 98.110 34.572,98.374 34.693,98.374 34.338 C 98.374 34.219,98.297 34.170,98.202 34.229 C 98.107 34.287,97.770 34.064,97.452 33.733 C 97.135 33.401,96.786 33.130,96.676 33.130 C 96.567 33.130,96.835 33.446,97.273 33.833 M262.709 33.446 C 262.489 33.613,262.214 33.713,262.098 33.668 C 261.983 33.624,261.771 33.713,261.627 33.867 C 261.293 34.225,261.397 34.218,262.394 33.819 C 262.844 33.640,263.211 33.411,263.211 33.311 C 263.211 33.078,263.187 33.085,262.709 33.446 M367.234 33.892 C 367.490 34.088,368.071 34.545,368.524 34.909 C 368.977 35.272,369.407 35.566,369.481 35.562 C 369.554 35.559,369.385 35.369,369.106 35.140 C 368.826 34.912,368.310 34.480,367.958 34.182 C 367.607 33.883,367.195 33.615,367.044 33.587 C 366.892 33.559,366.978 33.696,367.234 33.892 M99.497 35.581 C 99.650 35.942,100.639 36.740,101.148 36.914 C 101.392 36.997,101.345 36.912,101.016 36.673 C 100.737 36.470,100.462 36.253,100.407 36.191 C 100.002 35.739,99.390 35.329,99.497 35.581 M256.910 36.017 C 256.662 36.218,256.518 36.382,256.590 36.382 C 256.820 36.382,258.130 35.797,258.130 35.694 C 258.130 35.466,257.327 35.679,256.910 36.017 M255.577 36.677 C 255.197 36.961,255.199 36.968,255.643 36.856 C 255.897 36.792,256.154 36.659,256.214 36.561 C 256.386 36.283,256.014 36.350,255.577 36.677 M254.685 36.982 C 254.522 37.084,254.293 37.115,254.176 37.050 C 254.041 36.975,254.043 37.019,254.183 37.172 C 254.417 37.426,255.081 37.277,255.081 36.970 C 255.081 36.747,255.054 36.748,254.685 36.982 M101.451 37.275 C 102.305 37.954,103.897 39.021,103.711 38.791 C 103.572 38.619,103.504 38.419,103.559 38.345 C 103.614 38.272,103.600 38.255,103.528 38.308 C 103.340 38.447,102.236 37.757,102.236 37.499 C 102.236 37.380,102.043 37.267,101.806 37.249 C 101.570 37.231,101.410 37.243,101.451 37.275 M371.821 37.487 C 372.028 37.648,372.531 38.087,372.939 38.462 C 374.129 39.560,374.383 39.574,373.272 38.481 C 372.713 37.931,372.073 37.416,371.850 37.337 C 371.459 37.200,371.458 37.206,371.821 37.487 M0.212 38.313 C 0.005 39.398,0.006 39.530,0.220 39.170 C 0.337 38.971,0.393 38.651,0.342 38.459 C 0.292 38.267,0.233 38.201,0.212 38.313 M247.002 40.317 C 246.751 40.442,246.545 40.617,246.545 40.706 C 246.545 40.861,246.900 40.703,247.561 40.254 C 247.958 39.984,247.589 40.026,247.002 40.317 M375.694 41.030 C 376.131 41.483,376.565 41.806,376.659 41.748 C 376.753 41.690,376.830 41.762,376.831 41.909 C 376.831 42.055,377.301 42.678,377.876 43.293 C 378.450 43.908,378.838 44.259,378.738 44.073 C 378.638 43.887,378.210 43.361,377.787 42.904 C 377.363 42.447,377.084 42.073,377.167 42.073 C 377.249 42.073,377.203 41.959,377.063 41.819 C 376.923 41.679,376.699 41.565,376.565 41.565 C 376.431 41.565,376.321 41.436,376.321 41.278 C 376.321 41.120,376.001 40.814,375.610 40.598 L 374.898 40.207 375.694 41.030 M106.504 40.800 C 106.504 40.943,107.169 41.449,107.368 41.457 C 107.705 41.471,107.486 41.144,107.011 40.924 C 106.732 40.794,106.504 40.739,106.504 40.800 M242.689 42.065 C 242.524 42.169,242.440 42.304,242.500 42.365 C 242.561 42.426,242.787 42.342,243.003 42.179 C 243.431 41.855,243.171 41.760,242.689 42.065 M241.287 42.608 C 240.911 42.772,240.645 42.949,240.697 43.001 C 240.805 43.108,242.276 42.526,242.276 42.375 C 242.276 42.225,242.037 42.281,241.287 42.608 M238.124 43.837 C 238.055 44.017,238.192 44.022,238.681 43.857 C 239.563 43.560,239.597 43.500,238.852 43.553 C 238.502 43.577,238.175 43.705,238.124 43.837 M236.280 44.526 C 235.597 44.964,235.691 45.040,236.474 44.683 C 236.759 44.553,236.992 44.370,236.992 44.276 C 236.992 44.064,237.014 44.056,236.280 44.526 M379.389 44.956 C 379.602 45.199,379.925 45.554,380.107 45.743 C 380.288 45.932,380.482 46.213,380.536 46.367 C 380.591 46.521,380.690 46.596,380.758 46.535 C 380.905 46.401,379.448 44.536,379.186 44.522 C 379.085 44.517,379.176 44.712,379.389 44.956 M234.494 45.163 C 234.332 45.265,234.387 45.319,234.654 45.319 C 234.878 45.319,235.197 45.233,235.363 45.128 C 235.600 44.978,235.565 44.944,235.203 44.972 C 234.948 44.991,234.629 45.077,234.494 45.163 M114.685 45.608 C 115.029 45.952,116.779 46.846,117.480 47.036 C 117.759 47.112,117.210 46.758,116.260 46.250 C 114.354 45.231,114.276 45.199,114.685 45.608 M233.176 45.615 C 232.810 45.748,232.567 45.914,232.637 45.984 C 232.786 46.133,233.276 45.975,233.836 45.596 C 234.310 45.276,234.093 45.282,233.176 45.615 M231.229 46.266 C 230.686 46.433,230.286 46.614,230.340 46.668 C 230.496 46.823,232.317 46.313,232.317 46.114 C 232.317 46.016,232.294 45.941,232.266 45.949 C 232.238 45.957,231.771 46.100,231.229 46.266 M381.117 47.104 C 381.267 47.299,381.410 47.493,381.436 47.533 C 381.461 47.574,381.468 47.414,381.450 47.177 C 381.432 46.941,381.289 46.748,381.131 46.748 C 380.890 46.748,380.888 46.804,381.117 47.104 M118.597 47.358 C 118.470 47.564,119.486 48.062,119.666 47.881 C 119.720 47.828,119.525 47.724,119.233 47.651 C 118.941 47.578,118.752 47.436,118.814 47.336 C 118.876 47.236,118.881 47.154,118.825 47.154 C 118.769 47.154,118.667 47.246,118.597 47.358 M227.337 47.561 C 227.177 47.820,227.648 47.820,228.049 47.561 C 228.297 47.401,228.270 47.363,227.908 47.361 C 227.663 47.359,227.406 47.449,227.337 47.561 M226.174 47.877 C 226.112 47.940,225.845 48.019,225.581 48.053 C 225.317 48.088,224.873 48.207,224.593 48.317 C 224.314 48.428,223.948 48.571,223.780 48.634 C 223.613 48.697,223.584 48.756,223.716 48.764 C 223.849 48.773,224.215 48.677,224.529 48.550 C 224.844 48.423,225.304 48.292,225.551 48.260 C 226.048 48.194,226.857 47.780,226.507 47.770 C 226.386 47.767,226.236 47.815,226.174 47.877 M381.933 47.967 C 381.923 48.296,382.587 49.187,382.842 49.187 C 382.928 49.187,382.810 48.981,382.582 48.730 C 382.353 48.478,382.115 48.135,382.054 47.967 C 381.955 47.696,381.942 47.696,381.933 47.967 M222.154 48.965 C 222.154 49.059,221.865 49.194,221.512 49.265 C 221.159 49.335,220.914 49.437,220.968 49.491 C 221.022 49.545,221.471 49.471,221.966 49.328 C 222.634 49.134,222.774 49.032,222.510 48.930 C 222.315 48.855,222.154 48.870,222.154 48.965 M122.967 49.164 C 122.967 49.331,123.988 49.860,124.099 49.750 C 124.133 49.715,123.892 49.533,123.564 49.345 C 123.236 49.157,122.967 49.075,122.967 49.164 M219.399 49.896 C 219.038 50.172,219.060 50.179,219.665 49.977 C 220.354 49.747,220.512 49.593,220.059 49.593 C 219.913 49.593,219.616 49.729,219.399 49.896 M218.598 50.000 C 218.528 50.112,218.294 50.203,218.077 50.203 C 217.860 50.203,217.683 50.290,217.683 50.396 C 217.683 50.513,217.922 50.505,218.293 50.376 C 218.628 50.259,218.902 50.081,218.902 49.980 C 218.902 49.737,218.754 49.747,218.598 50.000 M125.620 50.295 C 125.782 50.455,126.601 50.781,127.439 51.021 C 128.277 51.260,129.123 51.505,129.319 51.565 C 129.523 51.627,129.675 51.567,129.675 51.425 C 129.675 51.288,129.557 51.221,129.412 51.277 C 129.268 51.332,128.976 51.251,128.764 51.095 C 128.551 50.940,128.188 50.813,127.956 50.813 C 127.725 50.813,127.038 50.631,126.430 50.409 C 125.643 50.121,125.409 50.089,125.620 50.295 M217.173 50.410 C 217.103 50.523,216.961 50.564,216.857 50.500 C 216.754 50.437,216.509 50.478,216.313 50.593 C 216.003 50.773,216.027 50.801,216.489 50.807 C 216.783 50.810,217.137 50.676,217.276 50.508 C 217.416 50.340,217.478 50.203,217.415 50.203 C 217.352 50.203,217.243 50.296,217.173 50.410 M215.346 50.769 C 215.122 50.815,214.848 50.942,214.736 51.050 C 214.548 51.234,215.619 51.074,215.837 50.886 C 216.000 50.745,215.748 50.685,215.346 50.769 M384.483 51.778 C 384.792 52.198,385.071 52.579,385.104 52.625 C 385.136 52.672,385.219 52.653,385.288 52.584 C 385.358 52.515,385.289 52.328,385.136 52.169 C 384.983 52.009,384.723 51.685,384.559 51.448 C 384.394 51.210,384.184 51.016,384.091 51.016 C 383.998 51.016,384.175 51.359,384.483 51.778 M212.261 51.489 C 211.146 51.901,211.292 52.017,212.531 51.704 C 214.123 51.301,214.230 51.252,213.516 51.251 C 213.181 51.251,212.616 51.358,212.261 51.489 M130.589 51.789 C 130.701 51.907,131.067 52.068,131.402 52.146 C 131.828 52.245,131.951 52.223,131.809 52.073 C 131.697 51.955,131.331 51.794,130.996 51.716 C 130.570 51.616,130.448 51.638,130.589 51.789 M209.959 52.033 C 209.959 52.271,210.116 52.271,210.671 52.033 C 211.031 51.878,211.014 51.856,210.518 51.844 C 210.211 51.836,209.959 51.921,209.959 52.033 M132.317 52.205 C 132.317 52.376,132.968 52.633,133.418 52.640 C 133.651 52.643,133.507 52.486,133.232 52.436 C 133.120 52.416,132.868 52.313,132.673 52.209 C 132.459 52.094,132.317 52.093,132.317 52.205 M208.102 52.331 C 208.050 52.384,207.708 52.449,207.342 52.477 C 206.976 52.505,206.626 52.609,206.565 52.709 C 206.433 52.921,208.083 52.681,208.537 52.422 C 208.802 52.270,208.800 52.247,208.520 52.242 C 208.343 52.239,208.155 52.279,208.102 52.331 M148.095 54.920 C 148.150 55.009,148.378 55.081,148.601 55.081 C 148.825 55.081,148.955 54.996,148.890 54.891 C 148.825 54.786,148.598 54.714,148.384 54.730 C 148.170 54.746,148.040 54.832,148.095 54.920 M190.854 54.909 C 190.854 55.120,191.224 55.110,191.768 54.884 C 192.098 54.748,192.050 54.718,191.514 54.726 C 191.151 54.732,190.854 54.814,190.854 54.909 M150.407 55.132 C 150.406 55.347,151.172 55.322,151.308 55.103 C 151.370 55.003,151.192 54.934,150.913 54.950 C 150.635 54.967,150.407 55.048,150.407 55.132 M153.964 55.286 C 154.111 55.524,154.878 55.560,154.878 55.329 C 154.878 55.241,154.644 55.151,154.359 55.127 C 154.058 55.102,153.892 55.169,153.964 55.286 M186.898 55.273 C 186.827 55.387,187.089 55.416,187.546 55.345 C 188.567 55.188,188.649 55.081,187.749 55.081 C 187.346 55.081,186.963 55.167,186.898 55.273 M155.887 55.501 C 156.386 55.602,156.868 55.611,156.958 55.521 C 157.048 55.431,156.640 55.348,156.051 55.337 L 154.980 55.317 155.887 55.501 M180.996 55.474 C 180.102 55.538,179.507 55.643,179.675 55.710 C 180.120 55.885,182.724 55.675,182.724 55.464 C 182.724 55.365,182.701 55.301,182.673 55.322 C 182.645 55.342,181.890 55.411,180.996 55.474 M183.740 55.490 C 183.740 55.617,184.069 55.645,184.604 55.564 C 185.787 55.382,185.817 55.285,184.688 55.285 C 184.167 55.285,183.740 55.377,183.740 55.490 M386.789 55.363 C 386.789 55.436,386.994 55.837,387.246 56.254 C 387.497 56.671,387.976 57.533,388.308 58.169 C 388.641 58.805,388.950 59.289,388.994 59.244 C 389.038 59.200,388.882 58.794,388.646 58.342 C 388.411 57.890,388.266 57.520,388.324 57.520 C 388.383 57.520,388.244 57.320,388.016 57.075 C 387.788 56.831,387.602 56.548,387.602 56.447 C 387.602 56.346,387.419 56.031,387.195 55.747 C 386.972 55.462,386.789 55.290,386.789 55.363 M158.693 55.635 C 159.058 55.680,159.607 55.679,159.912 55.633 C 160.218 55.587,159.919 55.550,159.248 55.551 C 158.577 55.552,158.327 55.590,158.693 55.635 M160.569 55.691 C 160.569 55.948,160.984 55.948,161.382 55.691 C 161.620 55.538,161.564 55.493,161.128 55.491 C 160.821 55.489,160.569 55.579,160.569 55.691 M162.928 55.726 C 162.985 55.819,163.598 55.887,164.290 55.878 C 165.761 55.860,165.628 55.756,163.983 55.640 C 163.346 55.595,162.871 55.633,162.928 55.726 M176.423 55.711 C 175.542 55.829,175.555 55.834,176.766 55.864 C 177.459 55.881,178.075 55.813,178.137 55.713 C 178.257 55.518,177.874 55.518,176.423 55.711 M178.455 55.735 C 178.455 55.822,178.638 55.894,178.862 55.894 C 179.085 55.894,179.268 55.822,179.268 55.735 C 179.268 55.647,179.085 55.575,178.862 55.575 C 178.638 55.575,178.455 55.647,178.455 55.735 M166.616 55.834 C 166.867 55.883,167.279 55.883,167.530 55.834 C 167.782 55.786,167.576 55.746,167.073 55.746 C 166.570 55.746,166.364 55.786,166.616 55.834 M170.020 55.894 C 170.089 56.006,170.369 56.098,170.642 56.098 C 170.915 56.098,171.138 56.006,171.138 55.894 C 171.138 55.783,170.858 55.691,170.516 55.691 C 170.154 55.691,169.947 55.776,170.020 55.894 M173.631 55.837 C 173.940 55.884,174.397 55.882,174.647 55.834 C 174.897 55.786,174.644 55.748,174.085 55.749 C 173.526 55.751,173.322 55.790,173.631 55.837 M389.440 60.264 C 389.435 60.566,389.798 61.082,389.926 60.955 C 389.987 60.894,389.903 60.668,389.740 60.453 C 389.577 60.237,389.442 60.152,389.440 60.264 M390.309 62.094 C 390.548 62.583,390.777 62.950,390.817 62.909 C 390.960 62.766,390.368 61.395,390.123 61.301 C 389.976 61.245,390.052 61.569,390.309 62.094 M391.667 65.191 C 391.667 65.319,391.760 65.481,391.873 65.551 C 391.987 65.621,392.031 65.757,391.972 65.854 C 391.912 65.950,391.951 66.083,392.059 66.150 C 392.313 66.307,392.151 65.443,391.875 65.167 C 391.733 65.026,391.667 65.033,391.667 65.191 M393.024 68.741 C 393.769 70.720,393.840 70.862,394.003 70.699 C 394.058 70.644,393.930 70.240,393.719 69.802 C 393.509 69.363,393.220 68.614,393.078 68.138 C 392.936 67.661,392.706 67.177,392.567 67.061 C 392.428 66.946,392.634 67.701,393.024 68.741 M394.675 73.415 C 394.809 73.549,394.919 73.818,394.919 74.012 C 394.919 74.207,395.004 74.419,395.109 74.484 C 395.227 74.557,395.227 74.350,395.109 73.938 C 395.004 73.573,394.919 73.252,394.919 73.223 C 394.919 73.194,394.809 73.171,394.675 73.171 C 394.485 73.171,394.485 73.225,394.675 73.415 M0.209 76.321 C 0.209 76.545,0.298 76.865,0.407 77.033 C 0.570 77.285,0.604 77.268,0.604 76.931 C 0.604 76.707,0.515 76.387,0.407 76.220 C 0.243 75.967,0.209 75.985,0.209 76.321 M395.770 77.033 C 395.751 77.643,396.050 78.165,396.198 77.780 C 396.270 77.592,396.247 77.439,396.147 77.439 C 396.047 77.439,395.923 77.279,395.872 77.083 C 395.809 76.842,395.776 76.826,395.770 77.033 M0.654 81.105 C 0.645 81.436,0.711 81.707,0.801 81.707 C 1.005 81.707,1.020 80.718,0.818 80.593 C 0.737 80.543,0.664 80.773,0.654 81.105 M0.813 82.520 C 0.813 82.856,0.889 83.130,0.981 83.130 C 1.073 83.130,1.109 82.856,1.060 82.520 C 1.010 82.185,0.935 81.911,0.892 81.911 C 0.848 81.911,0.813 82.185,0.813 82.520 M397.435 84.350 C 397.688 85.761,397.753 86.033,397.873 86.152 C 397.939 86.219,397.931 85.772,397.854 85.159 C 397.777 84.546,397.623 83.953,397.511 83.841 C 397.376 83.706,397.351 83.877,397.435 84.350 M1.153 86.230 C 1.172 86.593,1.195 87.005,1.204 87.144 C 1.212 87.284,1.316 87.398,1.435 87.398 C 1.553 87.398,1.581 87.288,1.498 87.152 C 1.414 87.017,1.366 86.605,1.390 86.237 C 1.415 85.870,1.364 85.569,1.277 85.569 C 1.189 85.569,1.134 85.866,1.153 86.230 M397.893 86.890 C 398.048 87.608,398.095 87.686,398.234 87.460 C 398.291 87.367,398.208 87.064,398.050 86.786 L 397.761 86.280 397.893 86.890 M398.156 88.185 C 398.268 88.394,398.294 88.637,398.214 88.725 C 398.134 88.814,398.175 88.826,398.304 88.752 C 398.568 88.601,398.430 87.805,398.140 87.805 C 398.032 87.805,398.039 87.966,398.156 88.185 M1.423 89.080 C 1.423 89.372,1.518 89.669,1.634 89.741 C 1.773 89.827,1.798 89.673,1.707 89.295 C 1.520 88.517,1.423 88.443,1.423 89.080 M398.462 90.422 C 398.525 90.799,398.577 91.279,398.577 91.489 C 398.577 91.698,398.659 91.870,398.758 91.870 C 398.979 91.870,398.813 90.463,398.543 90.041 C 398.405 89.827,398.381 89.940,398.462 90.422 M1.588 90.615 C 1.540 90.941,1.568 91.380,1.651 91.590 C 1.733 91.800,1.807 92.406,1.815 92.937 C 1.823 93.472,1.925 93.902,2.045 93.902 C 2.163 93.902,2.220 93.834,2.171 93.750 C 2.122 93.666,2.018 92.821,1.940 91.871 C 1.783 89.966,1.718 89.731,1.588 90.615 M398.804 93.242 C 398.892 93.885,399.002 94.757,399.048 95.179 C 399.094 95.602,399.202 96.014,399.287 96.094 C 399.373 96.174,399.389 95.828,399.323 95.325 C 399.257 94.822,399.143 93.885,399.070 93.242 C 398.997 92.599,398.871 92.073,398.791 92.073 C 398.710 92.073,398.716 92.599,398.804 93.242 M1.984 94.360 C 1.898 94.595,1.910 94.884,2.064 96.392 C 2.095 96.700,2.201 96.951,2.298 96.951 C 2.395 96.951,2.408 96.563,2.327 96.087 C 2.246 95.612,2.186 94.972,2.194 94.665 C 2.210 94.064,2.132 93.952,1.984 94.360 M399.262 97.229 C 399.312 97.764,399.414 98.262,399.489 98.337 C 399.564 98.412,399.573 98.024,399.508 97.476 C 399.355 96.176,399.144 95.964,399.262 97.229 M2.219 97.205 C 2.106 97.544,2.139 98.171,2.270 98.171 C 2.363 98.171,2.439 97.942,2.439 97.663 C 2.439 97.256,2.299 96.965,2.219 97.205 M2.236 98.984 C 2.236 99.207,2.327 99.390,2.439 99.390 C 2.551 99.390,2.642 99.207,2.642 98.984 C 2.642 98.760,2.551 98.577,2.439 98.577 C 2.327 98.577,2.236 98.760,2.236 98.984 M399.538 100.946 C 399.675 103.294,399.918 103.553,399.833 101.261 C 399.797 100.288,399.693 99.415,399.600 99.320 C 399.508 99.226,399.480 99.957,399.538 100.946 M2.386 99.746 C 2.343 99.830,2.373 100.173,2.451 100.508 C 2.592 101.108,2.595 101.105,2.618 100.356 C 2.641 99.632,2.556 99.410,2.386 99.746 M2.700 102.337 C 2.702 102.896,2.741 103.101,2.788 102.792 C 2.835 102.483,2.834 102.026,2.785 101.776 C 2.737 101.526,2.699 101.778,2.700 102.337 M2.763 105.006 C 2.820 106.491,3.010 106.639,2.998 105.190 C 2.993 104.564,2.929 104.015,2.855 103.969 C 2.780 103.923,2.739 104.390,2.763 105.006 M399.862 107.114 C 399.862 107.840,399.899 108.138,399.944 107.774 C 399.989 107.411,399.989 106.817,399.944 106.453 C 399.899 106.090,399.862 106.387,399.862 107.114 M3.006 107.978 C 2.959 108.117,2.983 108.826,3.060 109.553 L 3.199 110.874 3.198 109.299 C 3.197 107.719,3.166 107.506,3.006 107.978 M3.122 116.298 C 3.142 117.158,3.203 117.905,3.256 117.958 C 3.443 118.144,3.455 115.686,3.271 115.213 C 3.137 114.869,3.095 115.173,3.122 116.298 M399.215 116.498 C 399.199 116.684,399.128 117.004,399.055 117.209 C 398.954 117.496,398.981 117.529,399.174 117.351 C 399.312 117.224,399.384 116.904,399.334 116.639 C 399.283 116.375,399.230 116.311,399.215 116.498 M398.914 118.039 C 398.688 118.859,398.576 120.009,398.749 119.715 C 398.950 119.376,399.243 117.683,399.101 117.683 C 399.052 117.683,398.967 117.843,398.914 118.039 M398.251 120.832 C 398.129 121.224,398.104 121.545,398.197 121.545 C 398.393 121.545,398.651 120.648,398.546 120.332 C 398.507 120.215,398.374 120.439,398.251 120.832 M3.170 121.310 C 3.046 121.510,3.228 123.621,3.382 123.775 C 3.439 123.832,3.458 123.262,3.425 122.509 C 3.361 121.089,3.347 121.024,3.170 121.310 M397.663 122.764 C 397.586 123.005,397.570 123.247,397.625 123.303 C 397.681 123.359,397.790 123.208,397.866 122.967 C 397.942 122.727,397.959 122.485,397.903 122.429 C 397.847 122.373,397.739 122.524,397.663 122.764 M396.968 124.835 C 396.800 125.318,396.803 125.537,396.978 125.699 C 397.149 125.855,397.174 125.844,397.069 125.658 C 396.989 125.517,397.060 125.128,397.227 124.794 C 397.394 124.460,397.454 124.187,397.362 124.187 C 397.270 124.187,397.093 124.478,396.968 124.835 M3.470 124.797 C 3.334 125.097,3.379 126.174,3.522 126.031 C 3.615 125.938,3.651 125.600,3.603 125.279 C 3.555 124.958,3.495 124.741,3.470 124.797 M3.470 126.563 C 3.515 127.091,3.833 127.538,3.848 127.095 C 3.855 126.850,3.770 126.593,3.659 126.524 C 3.547 126.455,3.462 126.473,3.470 126.563 M395.665 128.080 C 395.350 128.881,395.351 128.905,395.685 128.554 C 395.967 128.257,396.246 127.236,396.046 127.236 C 396.019 127.236,395.847 127.616,395.665 128.080 M4.012 129.652 C 3.957 129.863,3.990 130.161,4.087 130.313 C 4.206 130.501,4.263 130.378,4.265 129.929 C 4.269 129.189,4.163 129.074,4.012 129.652 M393.902 131.606 C 393.902 131.773,393.821 131.911,393.721 131.911 C 393.487 131.911,393.265 132.480,393.454 132.594 C 393.533 132.642,393.756 132.370,393.949 131.991 C 394.142 131.611,394.211 131.301,394.101 131.301 C 393.992 131.301,393.902 131.438,393.902 131.606 M4.538 132.079 C 4.577 132.434,4.664 132.780,4.731 132.848 C 4.799 132.915,4.816 132.674,4.771 132.311 C 4.725 131.949,4.638 131.602,4.577 131.542 C 4.517 131.481,4.499 131.723,4.538 132.079 M392.928 133.222 C 392.740 133.635,392.751 133.701,392.997 133.607 C 393.159 133.544,393.293 133.320,393.293 133.108 C 393.293 132.595,393.200 132.623,392.928 133.222 M392.333 134.197 C 391.957 134.683,391.847 134.959,392.029 134.959 C 392.129 134.959,392.315 134.731,392.443 134.451 C 392.693 133.901,392.646 133.792,392.333 134.197 M391.037 136.217 C 390.906 136.461,390.628 136.844,390.420 137.068 C 390.211 137.292,390.041 137.558,390.041 137.659 C 390.041 137.760,390.361 137.460,390.752 136.992 C 391.143 136.524,391.463 136.058,391.463 135.956 C 391.463 135.643,391.285 135.752,391.037 136.217 M5.973 136.890 C 6.048 137.440,6.674 138.798,6.676 138.415 C 6.676 138.247,6.506 137.744,6.298 137.297 C 6.089 136.850,5.943 136.667,5.973 136.890 M389.081 138.872 C 388.738 139.347,388.243 139.972,387.979 140.260 C 386.942 141.394,385.464 143.156,385.393 143.343 C 385.351 143.451,385.717 143.097,386.206 142.556 C 386.694 142.016,387.430 141.205,387.841 140.756 C 388.775 139.735,389.894 138.201,389.785 138.091 C 389.740 138.046,389.423 138.397,389.081 138.872 M6.749 139.218 C 7.029 139.667,7.227 139.611,7.044 139.135 C 6.977 138.962,6.828 138.821,6.712 138.821 C 6.578 138.821,6.592 138.967,6.749 139.218 M7.030 140.011 C 6.951 140.139,6.983 140.244,7.102 140.244 C 7.220 140.244,7.317 140.388,7.317 140.563 C 7.317 140.739,7.454 141.020,7.622 141.188 C 8.025 141.591,7.995 141.318,7.542 140.468 C 7.313 140.038,7.120 139.866,7.030 140.011 M7.933 142.090 C 7.940 142.588,8.351 143.293,8.635 143.293 C 8.720 143.293,8.668 143.147,8.520 142.968 C 8.372 142.789,8.221 142.452,8.186 142.218 C 8.092 141.601,7.926 141.517,7.933 142.090 M382.784 145.833 C 381.333 147.372,381.356 147.571,382.826 146.184 C 384.018 145.058,384.472 144.512,384.215 144.512 C 384.113 144.512,383.470 145.107,382.784 145.833 M10.569 147.333 C 10.569 147.458,10.654 147.561,10.757 147.561 C 10.861 147.561,10.988 147.721,11.039 147.917 C 11.117 148.217,11.135 148.221,11.155 147.942 C 11.168 147.760,11.042 147.497,10.874 147.358 C 10.663 147.183,10.569 147.175,10.569 147.333 M11.384 148.418 C 11.380 148.710,12.072 150.000,12.233 150.000 C 12.324 150.000,12.398 150.137,12.398 150.305 C 12.398 150.473,12.490 150.610,12.602 150.610 C 12.713 150.610,12.808 150.724,12.812 150.864 C 12.816 151.004,13.056 151.392,13.345 151.728 L 13.871 152.337 13.397 151.524 C 12.524 150.027,11.386 148.271,11.384 148.418 M378.557 149.700 C 378.110 150.085,377.845 150.402,377.968 150.403 C 378.188 150.406,379.472 149.279,379.472 149.084 C 379.472 148.923,379.411 148.964,378.557 149.700 M376.978 151.028 C 376.842 151.245,376.639 151.426,376.526 151.430 C 376.413 151.435,375.955 151.762,375.508 152.158 C 375.061 152.554,374.896 152.778,375.141 152.657 C 375.386 152.536,375.644 152.344,375.714 152.231 C 375.784 152.118,375.940 152.087,376.062 152.162 C 376.191 152.242,376.224 152.204,376.141 152.070 C 376.056 151.932,376.199 151.791,376.501 151.715 C 376.777 151.646,377.053 151.460,377.113 151.303 C 377.174 151.145,377.358 151.016,377.522 151.016 C 377.983 151.016,378.073 150.698,377.622 150.664 C 377.403 150.648,377.113 150.812,376.978 151.028 M14.185 153.061 C 14.382 153.446,14.700 153.943,14.890 154.167 C 15.080 154.390,15.368 154.756,15.528 154.979 C 15.689 155.203,15.866 155.340,15.921 155.284 C 15.977 155.229,15.610 154.634,15.107 153.963 C 13.914 152.375,13.750 152.215,14.185 153.061 M372.874 154.136 C 372.668 154.286,372.586 154.463,372.693 154.529 C 372.799 154.595,372.997 154.471,373.132 154.255 C 373.422 153.790,373.376 153.768,372.874 154.136 M371.970 154.753 C 371.826 154.927,371.806 155.093,371.920 155.164 C 372.026 155.229,372.169 155.132,372.240 154.949 C 372.412 154.500,372.268 154.395,371.970 154.753 M370.224 155.990 C 369.888 156.265,369.537 156.493,369.443 156.497 C 369.200 156.507,368.198 157.317,368.428 157.317 C 368.532 157.317,368.728 157.207,368.862 157.073 C 368.996 156.939,369.106 156.897,369.106 156.980 C 369.106 157.063,369.357 156.897,369.665 156.612 C 369.972 156.326,370.384 156.042,370.579 155.980 C 370.775 155.918,370.935 155.782,370.935 155.677 C 370.935 155.415,370.912 155.425,370.224 155.990 M16.474 155.996 C 16.470 156.221,17.183 157.144,18.341 158.414 C 18.759 158.873,19.102 159.317,19.103 159.400 C 19.105 159.484,19.207 159.553,19.330 159.553 C 19.453 159.553,19.293 159.252,18.974 158.885 C 18.655 158.518,18.120 157.864,17.785 157.433 C 16.681 156.014,16.477 155.790,16.474 155.996 M367.378 157.724 C 367.043 157.946,366.872 158.128,367.000 158.129 C 367.222 158.130,368.298 157.336,368.089 157.325 C 368.034 157.322,367.713 157.501,367.378 157.724 M363.098 160.258 C 362.753 160.519,362.746 160.557,363.047 160.563 C 363.236 160.566,363.448 160.476,363.518 160.363 C 363.589 160.249,363.745 160.217,363.867 160.292 C 363.998 160.374,364.029 160.334,363.942 160.194 C 363.751 159.885,363.573 159.898,363.098 160.258 M361.269 161.270 C 360.888 161.555,360.890 161.561,361.334 161.449 C 361.588 161.385,361.845 161.253,361.905 161.154 C 362.077 160.876,361.705 160.944,361.269 161.270 M21.138 161.518 C 21.138 161.751,22.320 162.915,22.430 162.790 C 22.473 162.742,22.199 162.393,21.823 162.013 C 21.446 161.634,21.138 161.411,21.138 161.518 M359.595 162.060 C 359.115 162.311,358.784 162.578,358.858 162.652 C 359.010 162.804,360.472 162.110,360.669 161.792 C 360.861 161.480,360.559 161.556,359.595 162.060 M22.561 163.123 C 22.561 163.243,23.579 164.235,24.418 164.932 C 24.682 165.152,24.398 164.809,23.787 164.170 C 22.674 163.006,22.561 162.909,22.561 163.123 M352.484 165.474 C 351.989 165.702,351.672 165.966,351.747 166.089 C 351.831 166.224,351.927 166.231,352.007 166.107 C 352.077 165.998,352.500 165.718,352.947 165.484 C 353.971 164.948,353.644 164.942,352.484 165.474 M350.338 166.386 C 350.020 166.558,349.805 166.742,349.859 166.796 C 349.912 166.850,350.308 166.706,350.737 166.475 C 351.167 166.245,351.383 166.061,351.217 166.065 C 351.050 166.070,350.655 166.214,350.338 166.386 M26.769 167.175 C 27.172 167.566,27.602 167.883,27.724 167.879 C 27.958 167.871,26.427 166.472,26.179 166.466 C 26.100 166.465,26.366 166.784,26.769 167.175 M348.577 167.190 L 348.069 167.497 348.577 167.364 C 348.857 167.291,349.172 167.150,349.278 167.050 C 349.589 166.760,349.144 166.849,348.577 167.190 M347.663 167.480 C 347.594 167.591,347.377 167.683,347.181 167.683 C 346.986 167.683,346.648 167.814,346.431 167.974 C 346.108 168.213,346.211 168.209,347.002 167.950 C 347.533 167.777,347.967 167.554,347.967 167.456 C 347.967 167.217,347.818 167.228,347.663 167.480 M29.549 169.532 C 29.983 169.912,30.606 170.484,30.934 170.803 C 31.262 171.122,31.565 171.348,31.608 171.305 C 31.739 171.174,31.441 170.864,30.386 170.035 C 28.980 168.930,28.608 168.706,29.549 169.532 M339.345 170.443 C 338.399 170.789,338.097 171.022,338.834 170.838 C 339.119 170.766,339.509 170.684,339.699 170.656 C 340.065 170.603,340.665 170.112,340.335 170.136 C 340.229 170.144,339.783 170.282,339.345 170.443 M336.839 171.162 C 335.978 171.411,335.991 171.603,336.861 171.486 C 337.709 171.372,338.567 170.940,337.907 170.959 C 337.683 170.966,337.203 171.057,336.839 171.162 M32.317 171.754 C 32.597 171.994,33.065 172.400,33.358 172.658 C 33.866 173.105,35.172 173.989,34.959 173.742 C 34.645 173.377,32.560 171.686,32.215 171.517 C 31.919 171.372,31.946 171.436,32.317 171.754 M335.163 171.748 L 334.654 171.911 335.213 171.931 C 335.521 171.942,335.772 171.860,335.772 171.748 C 335.772 171.636,335.749 171.554,335.722 171.565 C 335.694 171.576,335.442 171.658,335.163 171.748 M333.096 172.247 C 332.109 172.528,331.899 172.763,332.755 172.628 C 333.601 172.494,334.842 171.985,334.248 172.014 C 334.024 172.026,333.506 172.130,333.096 172.247 M330.996 172.877 C 330.458 173.140,330.446 173.163,330.894 173.074 C 331.174 173.019,331.517 172.972,331.657 172.970 C 331.796 172.969,331.911 172.876,331.911 172.764 C 331.911 172.496,331.730 172.519,330.996 172.877 M35.820 174.450 C 36.014 174.607,36.113 174.795,36.040 174.868 C 35.967 174.940,36.066 175.000,36.259 175.000 C 36.694 175.000,36.509 174.668,35.913 174.380 C 35.511 174.186,35.502 174.193,35.820 174.450 M323.882 174.588 C 323.571 174.717,323.650 174.749,324.217 174.726 C 324.625 174.709,324.917 174.627,324.866 174.543 C 324.750 174.353,324.410 174.368,323.882 174.588 M319.563 175.413 C 319.311 175.514,319.106 175.630,319.106 175.671 C 319.106 175.745,319.974 175.682,320.071 175.601 C 320.099 175.578,320.206 175.548,320.308 175.534 C 320.411 175.520,320.563 175.440,320.647 175.356 C 320.855 175.148,320.126 175.186,319.563 175.413 M37.703 175.704 C 37.927 175.892,38.079 176.153,38.042 176.285 C 38.005 176.417,38.043 176.455,38.127 176.371 C 38.212 176.287,38.494 176.358,38.754 176.528 C 39.015 176.699,39.228 176.767,39.228 176.680 C 39.228 176.527,38.921 176.307,37.805 175.659 C 37.318 175.376,37.314 175.378,37.703 175.704 M317.613 175.762 C 317.561 175.846,317.775 175.915,318.089 175.915 C 318.403 175.915,318.618 175.846,318.566 175.762 C 318.514 175.678,318.300 175.610,318.089 175.610 C 317.879 175.610,317.665 175.678,317.613 175.762 M316.184 175.975 C 316.058 176.179,316.987 176.171,317.192 175.965 C 317.276 175.882,317.106 175.813,316.814 175.813 C 316.523 175.813,316.239 175.886,316.184 175.975 M313.211 176.359 C 312.149 176.521,311.198 176.734,311.098 176.832 C 310.913 177.014,311.276 176.997,312.602 176.760 C 312.993 176.691,313.677 176.583,314.122 176.522 C 314.567 176.460,315.020 176.321,315.128 176.213 C 315.237 176.105,315.284 176.027,315.234 176.040 C 315.183 176.053,314.273 176.196,313.211 176.359 M39.634 177.129 C 39.634 177.313,39.712 177.415,39.807 177.356 C 39.902 177.297,40.291 177.482,40.671 177.765 C 41.409 178.317,42.309 178.836,41.972 178.515 C 41.124 177.712,39.634 176.828,39.634 177.129 M308.910 176.930 C 308.861 176.980,308.528 177.042,308.170 177.069 C 307.813 177.097,307.520 177.182,307.520 177.260 C 307.520 177.384,309.148 177.263,309.312 177.127 C 309.348 177.097,309.292 177.021,309.188 176.957 C 309.085 176.893,308.959 176.881,308.910 176.930 M305.246 177.343 C 305.187 177.401,304.806 177.462,304.399 177.477 C 303.992 177.492,303.659 177.570,303.659 177.649 C 303.659 177.728,304.047 177.748,304.522 177.695 C 305.414 177.595,305.629 177.512,305.454 177.337 C 305.398 177.282,305.304 177.284,305.246 177.343 M305.878 177.504 C 305.983 177.609,306.215 177.593,306.434 177.465 C 306.763 177.273,306.741 177.251,306.253 177.285 C 305.930 177.308,305.773 177.399,305.878 177.504 M302.337 177.658 C 301.890 177.729,301.662 177.811,301.829 177.839 C 302.220 177.905,303.125 177.831,303.235 177.724 C 303.412 177.553,303.123 177.532,302.337 177.658 M300.203 177.847 C 299.970 177.998,300.029 178.035,300.457 178.002 C 300.765 177.979,301.016 177.889,301.016 177.801 C 301.016 177.582,300.572 177.607,300.203 177.847 M296.138 177.997 C 295.412 178.037,294.726 178.170,294.614 178.293 C 294.478 178.442,294.480 178.477,294.621 178.399 C 294.736 178.335,295.628 178.258,296.602 178.227 C 297.577 178.197,298.374 178.098,298.374 178.009 C 298.374 177.919,298.168 177.863,297.917 177.885 C 297.665 177.906,296.865 177.957,296.138 177.997 M42.175 178.861 C 42.106 178.973,42.230 179.065,42.451 179.065 C 42.672 179.065,42.898 179.179,42.955 179.319 C 43.032 179.511,43.061 179.512,43.073 179.326 C 43.095 178.986,42.340 178.595,42.175 178.861 M287.249 178.804 C 287.558 178.851,288.015 178.850,288.265 178.802 C 288.515 178.753,288.262 178.715,287.703 178.717 C 287.144 178.718,286.940 178.758,287.249 178.804 M43.539 179.755 C 43.683 179.911,43.871 179.996,43.957 179.944 C 44.189 179.804,43.923 179.472,43.578 179.472 C 43.330 179.472,43.323 179.522,43.539 179.755 M277.982 179.607 C 277.907 179.681,277.458 179.737,276.982 179.732 C 276.229 179.724,276.196 179.740,276.728 179.858 C 277.442 180.018,278.252 179.908,278.252 179.651 C 278.252 179.437,278.165 179.423,277.982 179.607 M273.866 180.108 C 273.774 180.256,275.034 180.110,275.193 179.954 C 275.243 179.905,274.984 179.888,274.618 179.916 C 274.252 179.944,273.914 180.030,273.866 180.108 M44.555 180.366 C 44.699 180.522,44.852 180.617,44.895 180.576 C 44.937 180.535,45.166 180.596,45.403 180.712 C 45.748 180.880,45.733 180.840,45.325 180.506 C 44.723 180.013,44.131 179.906,44.555 180.366 M272.154 180.241 C 272.154 180.329,272.337 180.415,272.561 180.432 C 272.785 180.449,272.967 180.377,272.967 180.272 C 272.967 180.167,272.785 180.081,272.561 180.081 C 272.337 180.081,272.154 180.153,272.154 180.241 M270.668 180.416 C 270.547 180.537,270.190 180.571,268.128 180.662 C 267.758 180.678,267.509 180.778,267.575 180.884 C 267.640 180.990,267.989 181.035,268.349 180.983 C 268.709 180.932,269.437 180.843,269.966 180.785 C 271.207 180.650,272.135 180.317,271.325 180.297 C 271.036 180.290,270.740 180.344,270.668 180.416 M45.935 181.099 C 45.935 181.212,46.301 181.450,46.748 181.629 C 47.195 181.808,47.561 182.021,47.561 182.102 C 47.561 182.183,47.698 182.249,47.866 182.249 C 48.034 182.249,48.171 182.173,48.171 182.080 C 48.171 181.987,48.074 181.911,47.957 181.911 C 47.839 181.911,47.406 181.682,46.995 181.402 C 46.185 180.852,45.935 180.781,45.935 181.099 M266.057 181.057 C 266.057 181.146,266.286 181.220,266.565 181.220 C 266.845 181.220,267.073 181.146,267.073 181.057 C 267.073 180.967,266.845 180.894,266.565 180.894 C 266.286 180.894,266.057 180.967,266.057 181.057 M264.431 181.177 C 264.431 181.375,265.004 181.449,265.262 181.285 C 265.471 181.153,265.397 181.103,264.990 181.101 C 264.682 181.099,264.431 181.134,264.431 181.177 M262.602 181.476 C 262.602 181.648,264.022 181.574,264.203 181.393 C 264.254 181.342,263.914 181.301,263.449 181.301 C 262.983 181.301,262.602 181.380,262.602 181.476 M259.959 181.911 L 259.451 182.073 259.959 182.073 C 260.239 182.073,260.696 182.000,260.976 181.911 L 261.484 181.748 260.976 181.748 C 260.696 181.748,260.239 181.821,259.959 181.911 M258.459 182.075 C 258.403 182.166,258.077 182.221,257.735 182.197 C 257.393 182.174,257.114 182.228,257.114 182.318 C 257.114 182.408,257.503 182.437,257.978 182.382 C 258.453 182.327,258.956 182.275,259.096 182.266 C 259.235 182.257,259.350 182.173,259.350 182.080 C 259.350 181.862,258.593 181.858,258.459 182.075 M255.104 182.550 C 254.614 182.639,254.156 182.769,254.088 182.838 C 253.959 182.970,255.931 182.730,256.081 182.596 C 256.282 182.416,255.934 182.399,255.104 182.550 M243.343 184.700 C 242.980 184.745,242.683 184.858,242.683 184.951 C 242.683 185.110,244.297 184.836,244.489 184.643 C 244.581 184.551,244.513 184.555,243.343 184.700 M240.091 185.312 C 239.281 185.480,238.618 185.709,238.618 185.819 C 238.618 185.929,238.778 185.956,238.974 185.878 C 239.372 185.721,239.673 185.653,240.690 185.491 C 241.075 185.430,241.613 185.291,241.884 185.182 C 242.628 184.885,241.880 184.939,240.091 185.312 M54.847 185.822 C 55.113 186.088,55.742 186.223,55.594 185.982 C 55.539 185.894,55.297 185.770,55.055 185.707 C 54.728 185.621,54.675 185.651,54.847 185.822 M236.902 186.001 C 235.733 186.275,235.722 186.432,236.882 186.296 C 237.435 186.231,237.979 186.086,238.090 185.975 C 238.335 185.730,238.029 185.737,236.902 186.001 M55.894 186.394 C 55.894 186.512,55.979 186.557,56.084 186.492 C 56.188 186.428,56.330 186.468,56.400 186.582 C 56.471 186.696,56.637 186.786,56.770 186.782 C 56.903 186.779,56.835 186.641,56.618 186.477 C 56.152 186.125,55.894 186.096,55.894 186.394 M233.638 186.689 L 232.825 186.964 233.673 186.896 C 234.594 186.821,235.643 186.386,234.858 186.404 C 234.634 186.409,234.085 186.537,233.638 186.689 M57.370 186.929 C 57.575 186.982,57.670 187.125,57.592 187.261 C 57.517 187.393,57.527 187.435,57.615 187.356 C 57.703 187.276,58.084 187.340,58.461 187.498 C 58.838 187.655,59.146 187.745,59.146 187.697 C 59.146 187.544,57.547 186.788,57.274 186.812 C 57.130 186.825,57.173 186.878,57.370 186.929 M232.063 186.934 C 231.756 186.981,231.504 187.088,231.504 187.173 C 231.504 187.258,231.778 187.288,232.114 187.238 C 232.449 187.189,232.724 187.068,232.724 186.969 C 232.724 186.870,232.701 186.802,232.673 186.819 C 232.645 186.836,232.370 186.888,232.063 186.934 M230.670 187.284 C 230.620 187.333,230.320 187.421,230.001 187.479 C 229.312 187.604,229.037 187.811,229.590 187.789 C 230.107 187.769,231.494 187.230,231.081 187.211 C 230.904 187.202,230.719 187.235,230.670 187.284 M228.557 187.747 C 228.333 187.800,228.059 187.937,227.947 188.051 C 227.693 188.309,228.668 188.048,228.953 187.782 C 229.059 187.683,229.105 187.612,229.055 187.625 C 229.005 187.638,228.780 187.693,228.557 187.747 M60.975 188.694 C 61.255 188.858,61.521 188.953,61.568 188.906 C 61.694 188.780,61.542 188.684,60.976 188.533 L 60.467 188.398 60.975 188.694 M62.602 189.373 C 62.769 189.435,63.030 189.584,63.181 189.703 C 63.550 189.996,64.024 190.052,64.024 189.802 C 64.024 189.691,63.911 189.638,63.772 189.684 C 63.633 189.731,63.398 189.647,63.249 189.498 C 63.101 189.349,62.826 189.235,62.638 189.244 C 62.359 189.257,62.352 189.280,62.602 189.373 M64.228 190.038 C 64.228 190.151,64.353 190.244,64.507 190.244 C 64.661 190.244,65.304 190.473,65.936 190.752 C 66.568 191.032,67.148 191.260,67.226 191.260 C 67.465 191.260,66.589 190.720,66.159 190.602 C 65.935 190.541,65.409 190.343,64.990 190.162 C 64.556 189.974,64.228 189.921,64.228 190.038 M218.302 190.437 C 218.140 190.540,217.935 190.579,217.847 190.524 C 217.758 190.470,217.525 190.518,217.329 190.631 C 217.048 190.793,217.120 190.820,217.662 190.755 C 218.041 190.710,218.448 190.576,218.566 190.458 C 218.829 190.196,218.700 190.185,218.302 190.437 M215.447 191.036 C 215.065 191.142,215.017 191.207,215.254 191.298 C 215.427 191.365,215.793 191.295,216.067 191.144 C 216.594 190.852,216.295 190.800,215.447 191.036 M67.765 191.431 C 67.845 191.561,68.047 191.667,68.213 191.667 C 68.380 191.667,68.763 191.791,69.065 191.943 C 69.678 192.252,70.902 192.583,70.706 192.386 C 70.583 192.263,68.773 191.543,68.007 191.313 C 67.745 191.234,67.667 191.273,67.765 191.431 M213.921 191.467 C 213.850 191.580,213.719 191.628,213.629 191.572 C 213.421 191.444,211.304 192.063,211.450 192.209 C 211.510 192.268,211.862 192.220,212.232 192.101 C 212.603 191.982,213.135 191.843,213.415 191.793 C 214.323 191.630,215.032 191.289,214.494 191.273 C 214.249 191.266,213.991 191.353,213.921 191.467 M209.248 192.700 C 208.622 192.942,208.466 193.051,208.841 192.985 C 209.463 192.877,209.625 192.833,210.163 192.628 C 210.330 192.564,210.605 192.466,210.772 192.410 C 210.976 192.342,210.942 192.308,210.671 192.308 C 210.447 192.308,209.807 192.484,209.248 192.700 M70.935 192.702 C 70.935 192.841,70.995 192.894,71.069 192.820 C 71.142 192.747,71.340 192.800,71.508 192.939 C 71.759 193.145,71.796 193.136,71.713 192.886 C 71.589 192.510,70.935 192.355,70.935 192.702 M74.700 193.883 C 74.809 193.989,75.173 194.142,75.508 194.222 C 76.295 194.408,76.118 194.235,75.208 193.927 C 74.819 193.796,74.591 193.776,74.700 193.883 M204.370 194.106 C 204.114 194.216,204.076 194.280,204.268 194.280 C 204.436 194.280,204.756 194.202,204.980 194.106 C 205.236 193.996,205.273 193.931,205.081 193.931 C 204.914 193.931,204.593 194.010,204.370 194.106 M203.049 194.491 C 202.635 194.606,202.604 194.657,202.881 194.764 C 203.074 194.838,203.328 194.767,203.465 194.602 C 203.599 194.441,203.674 194.318,203.633 194.329 C 203.591 194.340,203.328 194.413,203.049 194.491 M201.474 194.925 C 201.222 195.026,201.016 195.145,201.016 195.189 C 201.016 195.339,202.038 195.074,202.149 194.894 C 202.285 194.674,202.073 194.684,201.474 194.925 M78.252 195.060 C 78.252 195.385,78.753 195.522,79.083 195.287 C 79.317 195.122,79.308 195.103,79.039 195.189 C 78.857 195.246,78.605 195.191,78.480 195.065 C 78.319 194.904,78.252 194.902,78.252 195.060 M198.018 195.876 C 197.431 196.049,196.951 196.273,196.951 196.375 C 196.951 196.476,197.134 196.461,197.358 196.341 C 197.581 196.222,197.764 196.191,197.764 196.273 C 197.764 196.356,197.874 196.313,198.008 196.179 C 198.142 196.045,198.440 195.934,198.669 195.932 C 198.898 195.930,199.223 195.840,199.390 195.732 C 199.848 195.436,199.325 195.491,198.018 195.876 M81.301 196.011 C 81.580 196.175,81.847 196.270,81.893 196.223 C 82.020 196.097,81.867 196.001,81.301 195.850 L 80.793 195.715 81.301 196.011 M82.632 196.425 C 82.847 196.583,83.110 196.659,83.216 196.593 C 83.322 196.528,83.231 196.405,83.015 196.321 C 82.378 196.071,82.211 196.117,82.632 196.425 M193.470 197.289 C 193.217 197.596,193.234 197.605,193.653 197.382 C 193.906 197.246,194.204 197.191,194.313 197.259 C 194.423 197.326,194.512 197.285,194.512 197.166 C 194.512 196.828,193.779 196.915,193.470 197.289 M186.417 198.918 C 185.709 199.085,185.170 199.262,185.219 199.311 C 185.267 199.359,185.885 199.264,186.591 199.100 C 187.298 198.935,187.945 198.843,188.029 198.895 C 188.114 198.948,188.241 198.897,188.311 198.784 C 188.479 198.512,187.982 198.547,186.417 198.918 M98.476 200.203 C 99.035 200.444,99.234 200.444,99.085 200.203 C 99.016 200.091,98.759 200.006,98.514 200.014 C 98.085 200.028,98.084 200.035,98.476 200.203 M180.691 200.203 C 180.691 200.315,180.823 200.407,180.984 200.407 C 181.145 200.407,181.333 200.315,181.402 200.203 C 181.472 200.091,181.340 200.000,181.110 200.000 C 180.879 200.000,180.691 200.091,180.691 200.203 M99.593 200.371 C 99.761 200.472,100.310 200.613,100.813 200.684 C 101.379 200.763,101.612 200.744,101.423 200.632 C 101.255 200.533,100.706 200.392,100.203 200.319 C 99.623 200.235,99.400 200.254,99.593 200.371 M177.363 200.771 C 177.309 200.859,177.439 200.945,177.652 200.961 C 177.866 200.977,178.094 200.905,178.158 200.800 C 178.223 200.695,178.093 200.610,177.870 200.610 C 177.646 200.610,177.418 200.682,177.363 200.771 M102.755 201.034 C 102.830 201.155,103.064 201.210,103.275 201.155 C 103.486 201.100,103.710 201.139,103.774 201.242 C 103.838 201.345,103.992 201.366,104.116 201.289 C 104.261 201.200,104.201 201.094,103.950 200.995 C 103.340 200.757,102.598 200.780,102.755 201.034 M175.610 201.016 L 174.898 201.166 175.711 201.190 C 176.159 201.203,176.662 201.125,176.829 201.016 C 177.197 200.778,176.739 200.778,175.610 201.016 M105.126 201.332 C 105.189 201.395,105.528 201.483,105.880 201.528 C 107.308 201.708,108.232 201.868,108.380 201.960 C 108.466 202.013,108.537 201.968,108.537 201.859 C 108.537 201.751,108.194 201.606,107.774 201.537 C 106.485 201.326,105.006 201.212,105.126 201.332 M172.881 201.369 C 172.517 201.422,172.381 201.515,172.530 201.607 C 172.842 201.800,173.984 201.637,173.984 201.400 C 173.984 201.216,173.922 201.214,172.881 201.369 M171.490 201.569 C 171.181 201.615,170.973 201.727,171.028 201.816 C 171.158 202.026,172.154 201.837,172.154 201.602 C 172.154 201.504,172.132 201.436,172.104 201.453 C 172.076 201.470,171.800 201.522,171.490 201.569 M109.621 201.965 C 109.803 202.147,110.799 202.239,110.691 202.065 C 110.628 201.963,110.342 201.880,110.056 201.880 C 109.770 201.880,109.574 201.918,109.621 201.965 M168.127 202.052 C 166.636 202.249,166.547 202.450,168.011 202.314 C 169.134 202.211,169.490 202.115,169.292 201.970 C 169.245 201.936,168.721 201.973,168.127 202.052 M111.695 202.248 C 111.760 202.353,112.051 202.439,112.343 202.439 C 112.994 202.439,112.888 202.296,112.136 202.159 C 111.815 202.101,111.627 202.139,111.695 202.248 M113.415 202.439 C 113.415 202.551,113.620 202.641,113.872 202.639 C 114.242 202.637,114.271 202.598,114.024 202.439 C 113.630 202.184,113.415 202.184,113.415 202.439 M165.447 202.452 C 165.021 202.586,165.064 202.607,165.715 202.584 C 166.143 202.570,166.525 202.504,166.565 202.439 C 166.674 202.263,166.028 202.271,165.447 202.452 M115.041 202.638 C 115.041 202.752,115.330 202.846,115.684 202.846 C 116.424 202.846,116.398 202.757,115.600 202.565 C 115.268 202.486,115.041 202.515,115.041 202.638 M163.872 202.582 C 163.620 202.631,163.415 202.743,163.415 202.831 C 163.415 203.039,164.402 202.853,164.548 202.618 C 164.608 202.520,164.584 202.451,164.494 202.467 C 164.403 202.482,164.123 202.534,163.872 202.582 M116.597 202.795 C 116.546 202.879,116.776 202.957,117.110 202.970 C 117.513 202.985,117.626 202.934,117.446 202.820 C 117.108 202.606,116.720 202.594,116.597 202.795 M162.215 202.829 C 162.011 202.958,162.083 203.001,162.469 202.978 C 162.765 202.961,163.008 202.879,163.008 202.795 C 163.008 202.588,162.565 202.607,162.215 202.829 " stroke="none" fill="#fc7c7c" fill-rule="evenodd"></path><path id="path1" d="M66.565 5.189 C 66.900 5.464,67.250 5.689,67.343 5.690 C 67.435 5.691,67.239 5.462,66.907 5.183 C 66.575 4.903,66.225 4.678,66.129 4.682 C 66.034 4.686,66.230 4.914,66.565 5.189 M70.732 8.301 C 70.732 8.395,70.963 8.577,71.246 8.705 C 71.528 8.834,71.812 9.078,71.877 9.246 C 71.942 9.415,72.122 9.553,72.278 9.553 C 72.434 9.553,72.208 9.233,71.775 8.841 C 70.976 8.120,70.732 7.993,70.732 8.301 M16.514 8.543 C 16.263 8.644,16.057 8.823,16.057 8.941 C 16.057 9.060,16.283 9.007,16.565 8.823 C 16.845 8.640,17.073 8.455,17.073 8.412 C 17.073 8.317,17.082 8.315,16.514 8.543 M87.446 24.593 C 87.585 24.817,87.770 25.000,87.855 25.000 C 87.941 25.000,87.897 24.817,87.758 24.593 C 87.618 24.370,87.434 24.187,87.348 24.187 C 87.262 24.187,87.306 24.370,87.446 24.593 M355.488 27.124 C 355.488 27.180,355.762 27.367,356.098 27.541 C 356.433 27.714,356.707 27.810,356.707 27.754 C 356.707 27.698,356.433 27.511,356.098 27.337 C 355.762 27.164,355.488 27.068,355.488 27.124 M364.837 32.096 C 365.117 32.324,365.437 32.512,365.549 32.513 C 365.766 32.514,365.399 32.233,364.736 31.890 C 364.466 31.751,364.500 31.820,364.837 32.096 M261.230 33.785 C 260.601 34.088,260.649 34.397,261.280 34.109 C 261.560 33.982,261.789 33.801,261.789 33.707 C 261.789 33.507,261.813 33.504,261.230 33.785 M103.659 38.509 C 103.659 38.553,104.090 38.880,104.617 39.236 C 105.144 39.591,105.457 39.740,105.312 39.566 C 105.047 39.247,103.659 38.359,103.659 38.509 M374.593 39.603 C 374.593 39.697,374.776 39.940,375.000 40.142 C 375.224 40.345,375.407 40.450,375.407 40.377 C 375.407 40.304,375.224 40.061,375.000 39.837 C 374.776 39.614,374.593 39.508,374.593 39.603 M378.157 43.245 C 378.273 43.327,378.570 43.658,378.818 43.981 C 379.402 44.741,379.407 44.480,378.824 43.691 C 378.579 43.360,378.282 43.091,378.163 43.093 C 378.016 43.095,378.014 43.143,378.157 43.245 M225.661 47.864 C 225.297 48.022,225.000 48.199,225.000 48.258 C 225.000 48.384,226.030 47.966,226.311 47.726 C 226.578 47.498,226.430 47.530,225.661 47.864 M382.114 47.890 C 382.114 48.002,382.248 48.271,382.412 48.488 C 382.576 48.705,382.711 48.791,382.711 48.679 C 382.711 48.567,382.576 48.298,382.412 48.081 C 382.248 47.864,382.114 47.778,382.114 47.890 M141.057 53.862 C 141.057 53.974,141.308 54.059,141.616 54.051 C 142.111 54.038,142.129 54.017,141.768 53.862 C 141.213 53.623,141.057 53.623,141.057 53.862 M396.054 127.570 C 395.860 128.074,396.073 128.143,396.332 127.660 C 396.457 127.426,396.474 127.236,396.370 127.236 C 396.267 127.236,396.124 127.386,396.054 127.570 M392.610 134.153 C 392.414 134.485,392.327 134.755,392.417 134.755 C 392.584 134.753,393.134 133.717,393.026 133.608 C 392.993 133.576,392.806 133.821,392.610 134.153 M390.665 137.121 C 390.433 137.415,390.247 137.758,390.250 137.883 C 390.253 138.008,390.358 137.927,390.482 137.703 C 390.606 137.480,390.846 137.137,391.015 136.941 C 391.185 136.745,391.270 136.585,391.205 136.585 C 391.140 136.585,390.897 136.826,390.665 137.121 M387.923 140.667 C 387.616 141.012,387.405 141.335,387.455 141.384 C 387.504 141.434,387.791 141.152,388.092 140.758 C 388.766 139.874,388.674 139.825,387.923 140.667 M386.031 142.801 C 385.074 143.892,385.179 144.056,386.151 142.988 C 386.507 142.597,386.728 142.278,386.641 142.280 C 386.555 142.282,386.280 142.516,386.031 142.801 M384.451 144.512 C 384.130 144.848,383.958 145.122,384.070 145.122 C 384.182 145.122,384.476 144.848,384.724 144.512 C 384.972 144.177,385.143 143.902,385.105 143.902 C 385.067 143.902,384.773 144.177,384.451 144.512 M9.003 144.710 C 9.129 145.042,9.343 145.357,9.480 145.410 C 9.619 145.463,9.547 145.197,9.316 144.805 C 8.809 143.946,8.703 143.914,9.003 144.710 M379.867 148.933 L 379.167 149.695 379.977 148.984 C 380.423 148.592,380.827 148.249,380.875 148.222 C 380.923 148.194,380.873 148.171,380.765 148.171 C 380.656 148.171,380.252 148.514,379.867 148.933 M371.392 155.358 C 370.764 155.669,370.811 155.942,371.443 155.654 C 371.723 155.527,371.951 155.346,371.951 155.252 C 371.951 155.158,371.928 155.093,371.900 155.106 C 371.872 155.120,371.644 155.233,371.392 155.358 M369.744 156.511 C 369.120 157.030,369.457 157.024,370.122 156.504 C 370.401 156.285,370.539 156.108,370.427 156.109 C 370.315 156.110,370.008 156.291,369.744 156.511 M368.089 157.474 C 368.089 157.560,367.682 157.853,367.183 158.126 C 366.684 158.398,366.311 158.656,366.354 158.698 C 366.453 158.797,368.255 157.746,368.406 157.501 C 368.469 157.400,368.423 157.317,368.305 157.317 C 368.186 157.317,368.089 157.388,368.089 157.474 M355.259 164.583 C 355.012 164.898,355.017 164.910,355.303 164.687 C 355.481 164.548,355.678 164.485,355.740 164.548 C 355.803 164.610,355.914 164.564,355.988 164.444 C 356.213 164.079,355.556 164.204,355.259 164.583 M354.217 164.954 C 353.458 165.366,353.504 165.538,354.268 165.142 C 354.604 164.969,354.878 164.784,354.878 164.731 C 354.878 164.600,354.856 164.607,354.217 164.954 M344.424 168.882 C 344.197 168.970,344.120 169.091,344.242 169.166 C 344.358 169.237,344.626 169.165,344.838 169.004 C 345.253 168.690,345.060 168.633,344.424 168.882 M29.162 169.638 C 29.343 169.819,29.552 169.905,29.628 169.830 C 29.703 169.755,29.630 169.608,29.466 169.504 C 28.985 169.201,28.804 169.280,29.162 169.638 M288.161 179.005 C 288.412 179.054,288.824 179.054,289.075 179.005 C 289.327 178.957,289.121 178.917,288.618 178.917 C 288.115 178.917,287.909 178.957,288.161 179.005 M50.508 183.740 C 50.843 183.962,51.252 184.144,51.415 184.145 C 51.578 184.146,51.353 183.963,50.915 183.740 C 49.899 183.222,49.726 183.222,50.508 183.740 M73.018 193.433 C 73.214 193.484,73.374 193.610,73.374 193.714 C 73.374 193.818,73.580 193.902,73.831 193.901 C 74.250 193.900,74.240 193.874,73.706 193.596 C 73.386 193.429,73.020 193.303,72.893 193.316 C 72.766 193.329,72.823 193.382,73.018 193.433 M189.329 198.476 L 188.720 198.764 189.329 198.643 C 189.665 198.577,190.076 198.446,190.244 198.353 C 190.791 198.048,190.015 198.153,189.329 198.476 " stroke="none" fill="#fc8484" fill-rule="evenodd"></path><path id="path2" d="" stroke="none" fill="#1007c7c" fill-rule="evenodd"></path><path id="path3" d="" stroke="none" fill="#fc7c84" fill-rule="evenodd"></path><path id="path4" d="" stroke="none" fill="#1007c7c" fill-rule="evenodd"></path></g></svg>